<svg xmlns="http://www.w3.org/2000/svg" width="200" height="80" viewBox="0 0 200 75" version="1.1"><path d="" stroke="none" fill="#807483" fill-rule="evenodd"/><path d="M 87 22.319 C 87 24.044, 89.783 26.550, 90.691 25.643 C 91.044 25.289, 90.808 25, 90.167 25 C 89.525 25, 89 24.352, 89 23.559 C 89 22.766, 88.550 21.840, 88 21.500 C 87.450 21.160, 87 21.528, 87 22.319" stroke="none" fill="#d8c7c7" fill-rule="evenodd"/><path d="" stroke="none" fill="#b29090" fill-rule="evenodd"/><path d="M -0 37.505 L -0 75.010 100.250 74.755 L 200.500 74.500 200.762 37.250 L 201.024 -0 100.512 -0 L 0 0 -0 37.505 M 0.453 38 C 0.453 58.625, 0.586 67.063, 0.749 56.750 C 0.911 46.438, 0.911 29.563, 0.749 19.250 C 0.586 8.938, 0.453 17.375, 0.453 38 M 108.317 8.616 C 107.926 9.635, 108.138 10.546, 108.820 10.773 C 110.250 11.250, 110.410 15, 109 15 C 108.450 15, 107.772 14.994, 107.493 14.987 C 105.454 14.933, 97.184 20.300, 96.293 22.257 C 94.403 26.404, 88.736 24.922, 89.566 20.498 C 90.307 16.553, 88.536 14.998, 86.154 17.502 C 84.926 18.792, 84.822 19.359, 85.750 19.703 C 87.622 20.397, 87.256 23.984, 85.250 24.599 C 72.639 28.465, 65.131 40.238, 73.514 43.005 C 76.925 44.130, 77 44.271, 77 49.578 C 77 54.013, 77.319 55.030, 78.750 55.164 C 80.860 55.361, 89.436 55.808, 93.250 55.920 C 95.899 55.997, 96 56.197, 96 61.383 C 96 67.716, 96.447 67.973, 107.500 67.973 C 118.405 67.973, 119 67.655, 119 61.832 C 119 57.073, 119.133 56.843, 122.750 55.344 C 124.813 54.489, 126.650 53.650, 126.834 53.478 C 127.017 53.307, 126.230 51.047, 125.084 48.456 C 121.533 40.429, 122.162 35.633, 127.015 33.726 L 131.030 32.149 128.909 26.825 C 127.743 23.896, 126.546 20.894, 126.250 20.153 C 125.514 18.312, 117.518 15, 113.810 15 C 111.314 15, 110.916 14.694, 111.528 13.250 C 111.936 12.288, 112.322 10.614, 112.385 9.531 C 112.533 6.993, 109.225 6.249, 108.317 8.616" stroke="none" fill="#fefefe" fill-rule="evenodd"/><path d="M -0 37.505 L -0 75.010 100.250 74.755 L 200.500 74.500 200.762 37.250 L 201.024 -0 100.512 -0 L 0 0 -0 37.505 M 0.453 38 C 0.453 58.625, 0.586 67.063, 0.749 56.750 C 0.911 46.438, 0.911 29.563, 0.749 19.250 C 0.586 8.938, 0.453 17.375, 0.453 38 M 108.317 8.616 C 107.926 9.635, 108.138 10.546, 108.820 10.773 C 110.250 11.250, 110.410 15, 109 15 C 108.450 15, 107.772 14.994, 107.493 14.987 C 105.454 14.933, 97.184 20.300, 96.293 22.257 C 94.403 26.404, 88.736 24.922, 89.566 20.498 C 90.307 16.553, 88.536 14.998, 86.154 17.502 C 84.926 18.792, 84.822 19.359, 85.750 19.703 C 87.622 20.397, 87.256 23.984, 85.250 24.599 C 72.639 28.465, 65.131 40.238, 73.514 43.005 C 76.925 44.130, 77 44.271, 77 49.578 C 77 54.013, 77.319 55.030, 78.750 55.164 C 80.860 55.361, 89.436 55.808, 93.250 55.920 C 95.899 55.997, 96 56.197, 96 61.383 C 96 67.716, 96.447 67.973, 107.500 67.973 C 118.405 67.973, 119 67.655, 119 61.832 C 119 57.073, 119.133 56.843, 122.750 55.344 C 124.813 54.489, 126.650 53.650, 126.834 53.478 C 127.017 53.307, 126.230 51.047, 125.084 48.456 C 121.533 40.429, 122.162 35.633, 127.015 33.726 L 131.030 32.149 128.909 26.825 C 127.743 23.896, 126.546 20.894, 126.250 20.153 C 125.514 18.312, 117.518 15, 113.810 15 C 111.314 15, 110.916 14.694, 111.528 13.250 C 111.936 12.288, 112.322 10.614, 112.385 9.531 C 112.533 6.993, 109.225 6.249, 108.317 8.616" stroke="none" fill="#fefefe" fill-rule="evenodd"/><path d="" stroke="none" fill="#b49393" fill-rule="evenodd"/><path d="" stroke="none" fill="#bda1a1" fill-rule="evenodd"/><path d="M 108.322 38.626 C 106.639 39.802, 105.676 39.897, 104.083 39.044 C 100.945 37.365, 95.661 40.566, 91.972 46.383 C 88.347 52.099, 88.581 53.377, 93.554 55.018 L 97.248 56.237 96.611 61.651 L 95.975 67.066 107.237 66.783 L 118.500 66.500 118.800 61.311 C 119.085 56.378, 119.270 56.066, 122.550 54.983 C 126.606 53.645, 126.676 53.171, 123.838 46.323 C 120.873 39.169, 113.079 35.303, 108.322 38.626" stroke="none" fill="#cff9ad" fill-rule="evenodd"/><path d="M 108.322 38.626 C 106.639 39.802, 105.676 39.897, 104.083 39.044 C 100.945 37.365, 95.661 40.566, 91.972 46.383 C 88.347 52.099, 88.581 53.377, 93.554 55.018 L 97.248 56.237 96.611 61.651 L 95.975 67.066 107.237 66.783 L 118.500 66.500 118.800 61.311 C 119.085 56.378, 119.270 56.066, 122.550 54.983 C 126.606 53.645, 126.676 53.171, 123.838 46.323 C 120.873 39.169, 113.079 35.303, 108.322 38.626" stroke="none" fill="#cff9ad" fill-rule="evenodd"/><path d="M 108.322 38.626 C 106.639 39.802, 105.676 39.897, 104.083 39.044 C 100.945 37.365, 95.661 40.566, 91.972 46.383 C 88.347 52.099, 88.581 53.377, 93.554 55.018 L 97.248 56.237 96.611 61.651 L 95.975 67.066 107.237 66.783 L 118.500 66.500 118.800 61.311 C 119.085 56.378, 119.270 56.066, 122.550 54.983 C 126.606 53.645, 126.676 53.171, 123.838 46.323 C 120.873 39.169, 113.079 35.303, 108.322 38.626" stroke="none" fill="#cff9ad" fill-rule="evenodd"/><path d="M 91 25.933 C 91 27.469, 87.218 28.187, 85.099 27.053 C 82.151 25.475, 76.719 29.110, 73.007 35.143 L 69.935 40.135 73.968 41.719 C 77.977 43.294, 78 43.333, 78 48.652 L 78 54 83.286 54 C 87.832 54, 88.571 53.731, 88.571 52.079 C 88.571 50.571, 88.202 50.357, 86.846 51.082 C 82.138 53.602, 80.820 51.904, 80.411 42.793 L 80.027 34.240 88.956 34.218 C 97.343 34.197, 97.905 34.326, 98.193 36.348 C 98.488 38.418, 98.619 38.440, 101.636 36.932 C 104.746 35.378, 104.760 35.335, 103.323 31.932 C 102.062 28.947, 101.745 28.728, 100.887 30.250 C 100.241 31.397, 98.691 32, 96.391 32 C 94.306 32, 93.133 31.594, 93.500 31 C 93.840 30.450, 95.243 30, 96.618 30 C 99.693 30, 98.982 28.637, 94.826 26.563 C 91.157 24.733, 91 24.707, 91 25.933 M 90.500 46 C 89.647 47.650, 89.174 49, 89.449 49 C 89.724 49, 90.647 47.650, 91.500 46 C 92.353 44.350, 92.826 43, 92.551 43 C 92.276 43, 91.353 44.350, 90.500 46" stroke="none" fill="#ef96d3" fill-rule="evenodd"/><path d="M 80.411 42.796 C 80.938 54.536, 85.188 55.645, 90.894 45.534 C 92.563 42.577, 94.844 39.867, 95.964 39.511 C 102.495 37.439, 98.235 34.195, 89.013 34.218 L 80.027 34.240 80.411 42.796 M 80.750 54.723 C 82.537 54.945, 85.463 54.945, 87.250 54.723 C 89.037 54.502, 87.575 54.320, 84 54.320 C 80.425 54.320, 78.963 54.502, 80.750 54.723" stroke="none" fill="#f096d4" fill-rule="evenodd"/><path d="M 112.322 17.626 C 110.618 18.817, 109.687 18.903, 108.036 18.019 C 105.312 16.561, 97.651 20.481, 97.207 23.559 C 96.897 25.715, 102.492 29.240, 106.500 29.413 C 107.917 29.475, 108.476 30.166, 108.417 31.783 C 108.366 33.185, 108.692 33.708, 109.261 33.139 C 111.167 31.233, 109.561 28.508, 106.348 28.195 C 103.929 27.959, 103.105 27.328, 102.743 25.436 C 102.414 23.715, 102.606 23.256, 103.387 23.900 C 103.999 24.405, 108.202 24.733, 112.728 24.630 C 118.880 24.489, 121.087 24.785, 121.478 25.803 C 122.301 27.949, 122.059 28.642, 121.046 27.040 C 120.438 26.078, 120.173 28.044, 120.271 32.790 C 120.411 39.578, 122 43.448, 122 37 C 122 35.350, 122.439 34, 122.975 34 C 123.528 34, 123.687 32.683, 123.341 30.955 C 123.006 29.281, 123.130 28.002, 123.616 28.114 C 126.761 28.838, 127.897 26.852, 126.278 23.458 C 125.394 21.603, 124.295 20.318, 123.835 20.602 C 123.376 20.886, 123 20.690, 123 20.168 C 123 19.645, 121.191 18.493, 118.980 17.609 C 114.287 15.731, 115.038 15.729, 112.322 17.626 M 115.500 22 C 113.741 22.756, 113.838 22.868, 116.309 22.930 C 117.941 22.971, 118.859 22.581, 118.500 22 C 118.160 21.450, 117.796 21.032, 117.691 21.070 C 117.586 21.109, 116.600 21.527, 115.500 22 M 125.695 29.757 C 124.702 29.983, 124.055 30.665, 124.257 31.271 C 124.776 32.829, 126.249 33.126, 127.992 32.025 C 129.883 30.831, 128.214 29.183, 125.695 29.757" stroke="none" fill="#93cbec" fill-rule="evenodd"/><path d="M 112.322 17.626 C 110.618 18.817, 109.687 18.903, 108.036 18.019 C 105.312 16.561, 97.651 20.481, 97.207 23.559 C 96.897 25.715, 102.492 29.240, 106.500 29.413 C 107.917 29.475, 108.476 30.166, 108.417 31.783 C 108.366 33.185, 108.692 33.708, 109.261 33.139 C 111.167 31.233, 109.561 28.508, 106.348 28.195 C 103.929 27.959, 103.105 27.328, 102.743 25.436 C 102.414 23.715, 102.606 23.256, 103.387 23.900 C 103.999 24.405, 108.202 24.733, 112.728 24.630 C 118.880 24.489, 121.087 24.785, 121.478 25.803 C 122.301 27.949, 122.059 28.642, 121.046 27.040 C 120.438 26.078, 120.173 28.044, 120.271 32.790 C 120.411 39.578, 122 43.448, 122 37 C 122 35.350, 122.439 34, 122.975 34 C 123.528 34, 123.687 32.683, 123.341 30.955 C 123.006 29.281, 123.130 28.002, 123.616 28.114 C 126.761 28.838, 127.897 26.852, 126.278 23.458 C 125.394 21.603, 124.295 20.318, 123.835 20.602 C 123.376 20.886, 123 20.690, 123 20.168 C 123 19.645, 121.191 18.493, 118.980 17.609 C 114.287 15.731, 115.038 15.729, 112.322 17.626 M 115.500 22 C 113.741 22.756, 113.838 22.868, 116.309 22.930 C 117.941 22.971, 118.859 22.581, 118.500 22 C 118.160 21.450, 117.796 21.032, 117.691 21.070 C 117.586 21.109, 116.600 21.527, 115.500 22 M 125.695 29.757 C 124.702 29.983, 124.055 30.665, 124.257 31.271 C 124.776 32.829, 126.249 33.126, 127.992 32.025 C 129.883 30.831, 128.214 29.183, 125.695 29.757" stroke="none" fill="#93cbec" fill-rule="evenodd"/><path d="" stroke="none" fill="#ad8989" fill-rule="evenodd"/><path d="" stroke="none" fill="#ad8989" fill-rule="evenodd"/><path d="" stroke="none" fill="#ad8989" fill-rule="evenodd"/><path d="" stroke="none" fill="#9b6f6f" fill-rule="evenodd"/><path d="" stroke="none" fill="#8aa3bd" fill-rule="evenodd"/><path d="M 106.067 30.580 C 107.486 32.290, 109.321 32.464, 108.779 30.837 C 108.566 30.198, 107.603 29.559, 106.640 29.418 C 105.233 29.211, 105.120 29.440, 106.067 30.580" stroke="none" fill="#89a0b9" fill-rule="evenodd"/><path d="M 112.891 16.727 C 111.646 18.314, 111.672 18.365, 113.144 17.216 C 114.940 15.812, 123 18.226, 123 20.168 C 123 20.690, 123.418 20.860, 123.928 20.544 C 124.438 20.229, 125.154 20.911, 125.519 22.061 C 125.884 23.210, 126.377 23.956, 126.615 23.718 C 127.710 22.623, 125.417 19.745, 122.127 18.086 C 116.065 15.029, 114.415 14.786, 112.891 16.727 M 101.815 18.035 C 99.788 19.105, 97.865 20.410, 97.541 20.933 C 97.217 21.457, 98.978 20.754, 101.454 19.370 C 103.929 17.986, 106.485 17.182, 107.132 17.582 C 107.869 18.037, 108.042 17.878, 107.595 17.155 C 106.665 15.649, 106.196 15.721, 101.815 18.035 M 125.500 28 C 125.160 28.550, 125.561 29, 126.391 29 C 127.221 29, 128.407 29.788, 129.026 30.750 C 130.077 32.384, 130.113 32.379, 129.576 30.668 C 129.259 29.661, 129 28.423, 129 27.918 C 129 26.682, 126.275 26.746, 125.500 28 M 118 39.500 C 119.375 40.286, 120.950 40.929, 121.500 40.929 C 122.050 40.929, 121.375 40.286, 120 39.500 C 118.625 38.714, 117.050 38.071, 116.500 38.071 C 115.950 38.071, 116.625 38.714, 118 39.500" stroke="none" fill="#95cced" fill-rule="evenodd"/><path d="M 103 26.250 C 103 27.532, 103.811 28, 106.031 28 C 109.519 28, 110.921 30.295, 109.158 33.119 C 107.665 35.509, 107.692 36.276, 109.250 35.724 C 109.938 35.480, 112.654 36.118, 115.287 37.140 C 117.920 38.163, 120.181 39, 120.312 39 C 120.444 39, 120.438 35.962, 120.300 32.250 C 120.128 27.642, 120.353 25.976, 121.009 27 C 121.537 27.825, 121.969 28.050, 121.969 27.500 C 121.969 25.088, 119.966 24.500, 111.750 24.500 C 104.083 24.500, 103 24.717, 103 26.250" stroke="none" fill="#93ccee" fill-rule="evenodd"/><path d="M 108.322 38.626 C 106.639 39.802, 105.676 39.897, 104.083 39.044 C 100.945 37.365, 95.661 40.566, 91.972 46.383 C 88.347 52.099, 88.581 53.377, 93.554 55.018 L 97.248 56.237 96.611 61.651 L 95.975 67.066 107.237 66.783 L 118.500 66.500 118.800 61.311 C 119.085 56.378, 119.270 56.066, 122.550 54.983 C 126.606 53.645, 126.676 53.171, 123.838 46.323 C 120.873 39.169, 113.079 35.303, 108.322 38.626" stroke="none" fill="#cff9ad" fill-rule="evenodd"/><path d="M 95.648 26.993 C 98.946 28.324, 99.487 30, 96.618 30 C 95.243 30, 93.840 30.450, 93.500 31 C 93.132 31.596, 94.333 32, 96.472 32 C 98.735 32, 100.275 31.447, 100.636 30.506 C 100.952 29.684, 101.612 29.260, 102.105 29.565 C 102.597 29.869, 103 29.844, 103 29.508 C 103 28.721, 96.461 25.980, 94.782 26.063 C 94.077 26.098, 94.466 26.517, 95.648 26.993 M 100.441 37.555 C 98.567 39.057, 98.575 39.074, 100.689 38.052 C 102.142 37.351, 103.087 37.332, 103.498 37.997 C 103.839 38.549, 104.879 38.948, 105.809 38.884 C 107.191 38.789, 107.154 38.679, 105.605 38.283 C 104.082 37.893, 103.984 37.624, 105.105 36.914 C 106.175 36.236, 106.021 36.027, 104.441 36.015 C 103.309 36.007, 101.509 36.700, 100.441 37.555" stroke="none" fill="#ea96d0" fill-rule="evenodd"/><path d="M 86.334 25.750 C 86.334 26.438, 87.185 27, 88.226 27 C 89.266 27, 89.861 26.584, 89.547 26.076 C 89.233 25.567, 89.769 24.949, 90.738 24.703 C 91.707 24.456, 91.113 24.309, 89.418 24.377 C 87.685 24.446, 86.335 25.047, 86.334 25.750 M 77.252 47.500 C 77.263 49.700, 77.468 50.482, 77.707 49.238 C 77.946 47.994, 77.937 46.194, 77.687 45.238 C 77.437 44.282, 77.241 45.300, 77.252 47.500 M 96.252 59.500 C 96.263 61.700, 96.468 62.482, 96.707 61.238 C 96.946 59.994, 96.937 58.194, 96.687 57.238 C 96.437 56.282, 96.241 57.300, 96.252 59.500 M 103.280 67.736 C 105.909 67.943, 109.959 67.940, 112.280 67.731 C 114.601 67.521, 112.450 67.352, 107.500 67.355 C 102.550 67.358, 100.651 67.530, 103.280 67.736" stroke="none" fill="#f7f9fb" fill-rule="evenodd"/></svg>